  0
SECTION
  2
HEADER
  9
$ACADVER
  1
AC1015
  9
$HANDSEED
  5
      51
  0
ENDSEC
  0
SECTION
  2
TABLES
  0
TABLE
  2
VPORT
  5
1
100
AcDbSymbolTable
 70
     1
  0
VPORT
  5
2
100
AcDbSymbolTableRecord
100
AcDbViewportTableRecord
  2
*Active
 70
     0
 12
450
 22
205.5
 40
452.1
 41
2.1897810219
  0
ENDTAB
  0
TABLE
  2
LTYPE
  5
3
100
AcDbSymbolTable
 70
     2
  0
LTYPE
  5
4
100
AcDbSymbolTableRecord
100
AcDbLinetypeTableRecord
  2
ByBlock
 70
     0
  0
LTYPE
  5
5
100
AcDbSymbolTableRecord
100
AcDbLinetypeTableRecord
  2
ByLayer
 70
     0
  0
ENDTAB
  0
TABLE
  2
LAYER
  5
6
100
AcDbSymbolTable
 70
     1
  0
LAYER
  5
7
100
AcDbSymbolTableRecord
100
AcDbLayerTableRecord
  2
0
 70
     0
390

  0
ENDTAB
  0
TABLE
  2
STYLE
  5
8
100
AcDbSymbolTable
 70
     1
  0
STYLE
  5
9
100
AcDbSymbolTableRecord
100
AcDbTextStyleTableRecord
  2
Standard
 70
     0
 41
1.0
  3
txt
  0
ENDTAB
  0
TABLE
  2
VIEW
  5
A
100
AcDbSymbolTable
 70
     0
  0
ENDTAB
  0
TABLE
  2
UCS
  5
B
100
AcDbSymbolTable
 70
     0
  0
ENDTAB
  0
TABLE
  2
APPID
  5
C
100
AcDbSymbolTable
 70
     1
  0
APPID
  5
D
100
AcDbSymbolTableRecord
100
AcDbRegAppTableRecord
  2
ACAD
 70
     0
  0
ENDTAB
  0
TABLE
  2
DIMSTYLE
  5
E
100
AcDbSymbolTable
 70
     0
100
AcDbDimStyleTable
  0
ENDTAB
  0
TABLE
  2
BLOCK_RECORD
  5
F
100
AcDbSymbolTable
 70
2
  0
BLOCK_RECORD
  5
10
100
AcDbSymbolTableRecord
100
AcDbBlockTableRecord
  2
*Model_Space
  0
BLOCK_RECORD
  5
11
100
AcDbSymbolTableRecord
100
AcDbBlockTableRecord
  2
*Paper_Space
  0
ENDTAB
  0
ENDSEC
  0
SECTION
  2
BLOCKS
  0
BLOCK
  5
12
100
AcDbEntity
100
AcDbBlockBegin
  2
*Model_Space
  0
ENDBLK
  5
13
100
AcDbEntity
100
AcDbBlockEnd
  0
BLOCK
  5
14
100
AcDbEntity
100
AcDbBlockBegin
  2
*Paper_Space
  0
ENDBLK
  5
15
100
AcDbEntity
100
AcDbBlockEnd
  0
ENDSEC
  0
SECTION
  2
ENTITIES
  0
POLYLINE
  5
16
100
AcDbEntity
  8
PANEL
100
AcDb2dPolyline
 66
     1
 10
0
 20
0
 30
0
 39
-18
 70
1
  0
VERTEX
  5
17
100
AcDbEntity
  8
PANEL
100
AcDbVertex
100
AcDb2dVertex
 10
0
 20
0
 30
0
  0
VERTEX
  5
18
100
AcDbEntity
  8
PANEL
100
AcDbVertex
100
AcDb2dVertex
 10
900
 20
0
 30
0
  0
VERTEX
  5
19
100
AcDbEntity
  8
PANEL
100
AcDbVertex
100
AcDb2dVertex
 10
900
 20
411
 30
0
  0
VERTEX
  5
1A
100
AcDbEntity
  8
PANEL
100
AcDbVertex
100
AcDb2dVertex
 10
0
 20
411
 30
0
  0
SEQEND
  5
1B
100
AcDbEntity
  8
PANEL
  0
POLYLINE
  5
1C
100
AcDbEntity
  8
CONTORNO
100
AcDb2dPolyline
 66
     1
 10
0
 20
0
 30
0
 39
-18
 70
1
  0
VERTEX
  5
1D
100
AcDbEntity
  8
CONTORNO
100
AcDbVertex
100
AcDb2dVertex
 10
0
 20
411
 30
0
  0
VERTEX
  5
1E
100
AcDbEntity
  8
CONTORNO
100
AcDbVertex
100
AcDb2dVertex
 10
900
 20
411
 30
0
  0
VERTEX
  5
1F
100
AcDbEntity
  8
CONTORNO
100
AcDbVertex
100
AcDb2dVertex
 10
900
 20
0
 30
0
  0
VERTEX
  5
20
100
AcDbEntity
  8
CONTORNO
100
AcDbVertex
100
AcDb2dVertex
 10
0
 20
0
 30
0
  0
SEQEND
  5
21
100
AcDbEntity
  8
CONTORNO
  0
CIRCLE
  5
22
100
AcDbEntity
  8
VDRILL
100
AcDbCircle
 39
7
 10
178
 20
36
 30
-7
 40
2.5
  0
CIRCLE
  5
23
100
AcDbEntity
  8
VDRILL
100
AcDbCircle
 39
7
 10
210
 20
36
 30
-7
 40
2.5
  0
CIRCLE
  5
24
100
AcDbEntity
  8
VDRILL
100
AcDbCircle
 39
7
 10
242
 20
36
 30
-7
 40
2.5
  0
CIRCLE
  5
25
100
AcDbEntity
  8
VDRILL
100
AcDbCircle
 39
7
 10
274
 20
36
 30
-7
 40
2.5
  0
CIRCLE
  5
26
100
AcDbEntity
  8
VDRILL
100
AcDbCircle
 39
7
 10
306
 20
36
 30
-7
 40
2.5
  0
CIRCLE
  5
27
100
AcDbEntity
  8
VDRILL
100
AcDbCircle
 39
7
 10
338
 20
36
 30
-7
 40
2.5
  0
CIRCLE
  5
28
100
AcDbEntity
  8
VDRILL
100
AcDbCircle
 39
7
 10
370
 20
36
 30
-7
 40
2.5
  0
CIRCLE
  5
29
100
AcDbEntity
  8
VDRILL
100
AcDbCircle
 39
7
 10
402
 20
36
 30
-7
 40
2.5
  0
CIRCLE
  5
2A
100
AcDbEntity
  8
VDRILL
100
AcDbCircle
 39
7
 10
434
 20
36
 30
-7
 40
2.5
  0
CIRCLE
  5
2B
100
AcDbEntity
  8
VDRILL
100
AcDbCircle
 39
7
 10
466
 20
36
 30
-7
 40
2.5
  0
CIRCLE
  5
2C
100
AcDbEntity
  8
VDRILL
100
AcDbCircle
 39
7
 10
498
 20
36
 30
-7
 40
2.5
  0
CIRCLE
  5
2D
100
AcDbEntity
  8
VDRILL
100
AcDbCircle
 39
7
 10
530
 20
36
 30
-7
 40
2.5
  0
CIRCLE
  5
2E
100
AcDbEntity
  8
VDRILL
100
AcDbCircle
 39
7
 10
562
 20
36
 30
-7
 40
2.5
  0
CIRCLE
  5
2F
100
AcDbEntity
  8
VDRILL
100
AcDbCircle
 39
7
 10
594
 20
36
 30
-7
 40
2.5
  0
CIRCLE
  5
30
100
AcDbEntity
  8
VDRILL
100
AcDbCircle
 39
7
 10
626
 20
36
 30
-7
 40
2.5
  0
CIRCLE
  5
31
100
AcDbEntity
  8
VDRILL
100
AcDbCircle
 39
7
 10
658
 20
36
 30
-7
 40
2.5
  0
CIRCLE
  5
32
100
AcDbEntity
  8
VDRILL
100
AcDbCircle
 39
7
 10
690
 20
36
 30
-7
 40
2.5
  0
CIRCLE
  5
33
100
AcDbEntity
  8
VDRILL
100
AcDbCircle
 39
7
 10
722
 20
36
 30
-7
 40
2.5
  0
CIRCLE
  5
34
100
AcDbEntity
  8
VDRILL
100
AcDbCircle
 39
7
 10
178
 20
377
 30
-7
 40
2.5
  0
CIRCLE
  5
35
100
AcDbEntity
  8
VDRILL
100
AcDbCircle
 39
7
 10
210
 20
377
 30
-7
 40
2.5
  0
CIRCLE
  5
36
100
AcDbEntity
  8
VDRILL
100
AcDbCircle
 39
7
 10
242
 20
377
 30
-7
 40
2.5
  0
CIRCLE
  5
37
100
AcDbEntity
  8
VDRILL
100
AcDbCircle
 39
7
 10
274
 20
377
 30
-7
 40
2.5
  0
CIRCLE
  5
38
100
AcDbEntity
  8
VDRILL
100
AcDbCircle
 39
7
 10
306
 20
377
 30
-7
 40
2.5
  0
CIRCLE
  5
39
100
AcDbEntity
  8
VDRILL
100
AcDbCircle
 39
7
 10
338
 20
377
 30
-7
 40
2.5
  0
CIRCLE
  5
3A
100
AcDbEntity
  8
VDRILL
100
AcDbCircle
 39
7
 10
370
 20
377
 30
-7
 40
2.5
  0
CIRCLE
  5
3B
100
AcDbEntity
  8
VDRILL
100
AcDbCircle
 39
7
 10
402
 20
377
 30
-7
 40
2.5
  0
CIRCLE
  5
3C
100
AcDbEntity
  8
VDRILL
100
AcDbCircle
 39
7
 10
434
 20
377
 30
-7
 40
2.5
  0
CIRCLE
  5
3D
100
AcDbEntity
  8
VDRILL
100
AcDbCircle
 39
7
 10
466
 20
377
 30
-7
 40
2.5
  0
CIRCLE
  5
3E
100
AcDbEntity
  8
VDRILL
100
AcDbCircle
 39
7
 10
498
 20
377
 30
-7
 40
2.5
  0
CIRCLE
  5
3F
100
AcDbEntity
  8
VDRILL
100
AcDbCircle
 39
7
 10
530
 20
377
 30
-7
 40
2.5
  0
CIRCLE
  5
40
100
AcDbEntity
  8
VDRILL
100
AcDbCircle
 39
7
 10
562
 20
377
 30
-7
 40
2.5
  0
CIRCLE
  5
41
100
AcDbEntity
  8
VDRILL
100
AcDbCircle
 39
7
 10
594
 20
377
 30
-7
 40
2.5
  0
CIRCLE
  5
42
100
AcDbEntity
  8
VDRILL
100
AcDbCircle
 39
7
 10
626
 20
377
 30
-7
 40
2.5
  0
CIRCLE
  5
43
100
AcDbEntity
  8
VDRILL
100
AcDbCircle
 39
7
 10
658
 20
377
 30
-7
 40
2.5
  0
CIRCLE
  5
44
100
AcDbEntity
  8
VDRILL
100
AcDbCircle
 39
7
 10
690
 20
377
 30
-7
 40
2.5
  0
CIRCLE
  5
45
100
AcDbEntity
  8
VDRILL
100
AcDbCircle
 39
7
 10
722
 20
377
 30
-7
 40
2.5
  0
CIRCLE
  5
46
100
AcDbEntity
  8
VDRILL
100
AcDbCircle
 39
2
 10
-9
 20
50
 30
16
 40
4
210
0
220
0
230
-1
  0
CIRCLE
  5
47
100
AcDbEntity
  8
VDRILL
100
AcDbCircle
 39
2
 10
-9
 20
361
 30
16
 40
4
210
0
220
0
230
-1
  0
CIRCLE
  5
48
100
AcDbEntity
  8
VDRILL
100
AcDbCircle
 39
2
 10
-891
 20
50
 30
16
 40
4
210
0
220
0
230
-1
  0
CIRCLE
  5
49
100
AcDbEntity
  8
VDRILL
100
AcDbCircle
 39
2
 10
-891
 20
361
 30
16
 40
4
210
0
220
0
230
-1
  0
CIRCLE
  5
4A
100
AcDbEntity
  8
VDRILL
100
AcDbCircle
 39
18
 10
-9
 20
50
 30
0
 40
2.5
210
0
220
0
230
-1
  0
CIRCLE
  5
4B
100
AcDbEntity
  8
VDRILL
100
AcDbCircle
 39
18
 10
-9
 20
361
 30
0
 40
2.5
210
0
220
0
230
-1
  0
CIRCLE
  5
4C
100
AcDbEntity
  8
VDRILL
100
AcDbCircle
 39
18
 10
-891
 20
50
 30
0
 40
2.5
210
0
220
0
230
-1
  0
CIRCLE
  5
4D
100
AcDbEntity
  8
VDRILL
100
AcDbCircle
 39
18
 10
-891
 20
361
 30
0
 40
2.5
210
0
220
0
230
-1
  0
ENDSEC
  0
SECTION
  2
OBJECTS
  0
DICTIONARY
  5
4E
100
AcDbDictionary
  3
ACAD_GROUP
350
4F
  3
ACAD_MLINESTYLE
350
50
  0
DICTIONARY
  5
4F
100
AcDbDictionary
  0
DICTIONARY
  5
50
100
AcDbDictionary
  0
ENDSEC
  0
EOF
