  0
SECTION
  2
HEADER
  9
$ACADVER
  1
AC1015
  9
$HANDSEED
  5
      5C
  0
ENDSEC
  0
SECTION
  2
TABLES
  0
TABLE
  2
VPORT
  5
1
100
AcDbSymbolTable
 70
     1
  0
VPORT
  5
2
100
AcDbSymbolTableRecord
100
AcDbViewportTableRecord
  2
*Active
 70
     0
 12
475
 22
240.5
 40
529.1
 41
1.97505197505
  0
ENDTAB
  0
TABLE
  2
LTYPE
  5
3
100
AcDbSymbolTable
 70
     2
  0
LTYPE
  5
4
100
AcDbSymbolTableRecord
100
AcDbLinetypeTableRecord
  2
ByBlock
 70
     0
  0
LTYPE
  5
5
100
AcDbSymbolTableRecord
100
AcDbLinetypeTableRecord
  2
ByLayer
 70
     0
  0
ENDTAB
  0
TABLE
  2
LAYER
  5
6
100
AcDbSymbolTable
 70
     1
  0
LAYER
  5
7
100
AcDbSymbolTableRecord
100
AcDbLayerTableRecord
  2
0
 70
     0
390

  0
ENDTAB
  0
TABLE
  2
STYLE
  5
8
100
AcDbSymbolTable
 70
     1
  0
STYLE
  5
9
100
AcDbSymbolTableRecord
100
AcDbTextStyleTableRecord
  2
Standard
 70
     0
 41
1.0
  3
txt
  0
ENDTAB
  0
TABLE
  2
VIEW
  5
A
100
AcDbSymbolTable
 70
     0
  0
ENDTAB
  0
TABLE
  2
UCS
  5
B
100
AcDbSymbolTable
 70
     0
  0
ENDTAB
  0
TABLE
  2
APPID
  5
C
100
AcDbSymbolTable
 70
     1
  0
APPID
  5
D
100
AcDbSymbolTableRecord
100
AcDbRegAppTableRecord
  2
ACAD
 70
     0
  0
ENDTAB
  0
TABLE
  2
DIMSTYLE
  5
E
100
AcDbSymbolTable
 70
     0
100
AcDbDimStyleTable
  0
ENDTAB
  0
TABLE
  2
BLOCK_RECORD
  5
F
100
AcDbSymbolTable
 70
2
  0
BLOCK_RECORD
  5
10
100
AcDbSymbolTableRecord
100
AcDbBlockTableRecord
  2
*Model_Space
  0
BLOCK_RECORD
  5
11
100
AcDbSymbolTableRecord
100
AcDbBlockTableRecord
  2
*Paper_Space
  0
ENDTAB
  0
ENDSEC
  0
SECTION
  2
BLOCKS
  0
BLOCK
  5
12
100
AcDbEntity
100
AcDbBlockBegin
  2
*Model_Space
  0
ENDBLK
  5
13
100
AcDbEntity
100
AcDbBlockEnd
  0
BLOCK
  5
14
100
AcDbEntity
100
AcDbBlockBegin
  2
*Paper_Space
  0
ENDBLK
  5
15
100
AcDbEntity
100
AcDbBlockEnd
  0
ENDSEC
  0
SECTION
  2
ENTITIES
  0
POLYLINE
  5
16
100
AcDbEntity
  8
PANEL
100
AcDb2dPolyline
 66
     1
 10
0
 20
0
 30
0
 39
-19
 70
1
  0
VERTEX
  5
17
100
AcDbEntity
  8
PANEL
100
AcDbVertex
100
AcDb2dVertex
 10
0
 20
0
 30
0
  0
VERTEX
  5
18
100
AcDbEntity
  8
PANEL
100
AcDbVertex
100
AcDb2dVertex
 10
950
 20
0
 30
0
  0
VERTEX
  5
19
100
AcDbEntity
  8
PANEL
100
AcDbVertex
100
AcDb2dVertex
 10
950
 20
481
 30
0
  0
VERTEX
  5
1A
100
AcDbEntity
  8
PANEL
100
AcDbVertex
100
AcDb2dVertex
 10
0
 20
481
 30
0
  0
SEQEND
  5
1B
100
AcDbEntity
  8
PANEL
  0
POLYLINE
  5
1C
100
AcDbEntity
  8
CONTORNO
100
AcDb2dPolyline
 66
     1
 10
0
 20
0
 30
0
 39
-19
 70
1
  0
VERTEX
  5
1D
100
AcDbEntity
  8
CONTORNO
100
AcDbVertex
100
AcDb2dVertex
 10
0
 20
0
 30
0
  0
VERTEX
  5
1E
100
AcDbEntity
  8
CONTORNO
100
AcDbVertex
100
AcDb2dVertex
 10
0
 20
481
 30
0
  0
VERTEX
  5
1F
100
AcDbEntity
  8
CONTORNO
100
AcDbVertex
100
AcDb2dVertex
 10
950
 20
481
 30
0
  0
VERTEX
  5
20
100
AcDbEntity
  8
CONTORNO
100
AcDbVertex
100
AcDb2dVertex
 10
950
 20
0
 30
0
  0
SEQEND
  5
21
100
AcDbEntity
  8
CONTORNO
  0
CIRCLE
  5
22
100
AcDbEntity
  8
CONTORNO_INTERIOR
100
AcDbCircle
 10
475
 20
431
 30
-19
 40
25
  0
POLYLINE
  5
23
100
AcDbEntity
  8
CONTORNO_INTERIOR
100
AcDb2dPolyline
 66
     1
 10
0
 20
0
 30
-15
 70
1
  0
VERTEX
  5
24
100
AcDbEntity
  8
CONTORNO_INTERIOR
100
AcDbVertex
100
AcDb2dVertex
 10
504.664924787
 20
426.528732015
 30
-15
  0
VERTEX
  5
25
100
AcDbEntity
  8
CONTORNO_INTERIOR
100
AcDbVertex
100
AcDb2dVertex
 10
503.667184174
 20
422.157344768
 30
-15
  0
VERTEX
  5
26
100
AcDbEntity
  8
CONTORNO_INTERIOR
100
AcDbVertex
100
AcDb2dVertex
 10
502.029066037
 20
417.983487826
 30
-15
  0
VERTEX
  5
27
100
AcDbEntity
  8
CONTORNO_INTERIOR
100
AcDbVertex
100
AcDb2dVertex
 10
499.787163229
 20
414.100398258
 30
-15
  0
VERTEX
  5
28
100
AcDbEntity
  8
CONTORNO_INTERIOR
100
AcDbVertex
100
AcDb2dVertex
 10
496.991556155
 20
410.594817867
 30
-15
  0
VERTEX
  5
29
100
AcDbEntity
  8
CONTORNO_INTERIOR
100
AcDbVertex
100
AcDb2dVertex
 10
493.704694056
 20
407.545055526
 30
-15
  0
VERTEX
  5
2A
100
AcDbEntity
  8
CONTORNO_INTERIOR
100
AcDbVertex
100
AcDb2dVertex
 10
490
 20
405.019237886
 30
-15
  0
VERTEX
  5
2B
100
AcDbEntity
  8
CONTORNO_INTERIOR
100
AcDbVertex
100
AcDb2dVertex
 10
485.960230731
 20
403.073787541
 30
-15
  0
VERTEX
  5
2C
100
AcDbEntity
  8
CONTORNO_INTERIOR
100
AcDbVertex
100
AcDb2dVertex
 10
481.675628019
 20
401.752162635
 30
-15
  0
VERTEX
  5
2D
100
AcDbEntity
  8
CONTORNO_INTERIOR
100
AcDbVertex
100
AcDb2dVertex
 10
477.241902808
 20
401.083886085
 30
-15
  0
VERTEX
  5
2E
100
AcDbEntity
  8
CONTORNO_INTERIOR
100
AcDbVertex
100
AcDb2dVertex
 10
472.758097192
 20
401.083886085
 30
-15
  0
VERTEX
  5
2F
100
AcDbEntity
  8
CONTORNO_INTERIOR
100
AcDbVertex
100
AcDb2dVertex
 10
468.324371981
 20
401.752162635
 30
-15
  0
VERTEX
  5
30
100
AcDbEntity
  8
CONTORNO_INTERIOR
100
AcDbVertex
100
AcDb2dVertex
 10
464.039769269
 20
403.073787541
 30
-15
  0
VERTEX
  5
31
100
AcDbEntity
  8
CONTORNO_INTERIOR
100
AcDbVertex
100
AcDb2dVertex
 10
460
 20
405.019237886
 30
-15
  0
VERTEX
  5
32
100
AcDbEntity
  8
CONTORNO_INTERIOR
100
AcDbVertex
100
AcDb2dVertex
 10
456.295305944
 20
407.545055526
 30
-15
  0
VERTEX
  5
33
100
AcDbEntity
  8
CONTORNO_INTERIOR
100
AcDbVertex
100
AcDb2dVertex
 10
453.008443845
 20
410.594817867
 30
-15
  0
VERTEX
  5
34
100
AcDbEntity
  8
CONTORNO_INTERIOR
100
AcDbVertex
100
AcDb2dVertex
 10
450.212836771
 20
414.100398258
 30
-15
  0
VERTEX
  5
35
100
AcDbEntity
  8
CONTORNO_INTERIOR
100
AcDbVertex
100
AcDb2dVertex
 10
447.970933963
 20
417.983487826
 30
-15
  0
VERTEX
  5
36
100
AcDbEntity
  8
CONTORNO_INTERIOR
100
AcDbVertex
100
AcDb2dVertex
 10
446.332815826
 20
422.157344768
 30
-15
  0
VERTEX
  5
37
100
AcDbEntity
  8
CONTORNO_INTERIOR
100
AcDbVertex
100
AcDb2dVertex
 10
445.335075213
 20
426.528732015
 30
-15
  0
VERTEX
  5
38
100
AcDbEntity
  8
CONTORNO_INTERIOR
100
AcDbVertex
100
AcDb2dVertex
 10
445
 20
431
 30
-15
  0
VERTEX
  5
39
100
AcDbEntity
  8
CONTORNO_INTERIOR
100
AcDbVertex
100
AcDb2dVertex
 10
445.335075213
 20
435.471267985
 30
-15
  0
VERTEX
  5
3A
100
AcDbEntity
  8
CONTORNO_INTERIOR
100
AcDbVertex
100
AcDb2dVertex
 10
446.332815826
 20
439.842655232
 30
-15
  0
VERTEX
  5
3B
100
AcDbEntity
  8
CONTORNO_INTERIOR
100
AcDbVertex
100
AcDb2dVertex
 10
447.970933963
 20
444.016512174
 30
-15
  0
VERTEX
  5
3C
100
AcDbEntity
  8
CONTORNO_INTERIOR
100
AcDbVertex
100
AcDb2dVertex
 10
450.212836771
 20
447.899601742
 30
-15
  0
VERTEX
  5
3D
100
AcDbEntity
  8
CONTORNO_INTERIOR
100
AcDbVertex
100
AcDb2dVertex
 10
453.008443845
 20
451.405182133
 30
-15
  0
VERTEX
  5
3E
100
AcDbEntity
  8
CONTORNO_INTERIOR
100
AcDbVertex
100
AcDb2dVertex
 10
456.295305944
 20
454.454944474
 30
-15
  0
VERTEX
  5
3F
100
AcDbEntity
  8
CONTORNO_INTERIOR
100
AcDbVertex
100
AcDb2dVertex
 10
460
 20
456.980762114
 30
-15
  0
VERTEX
  5
40
100
AcDbEntity
  8
CONTORNO_INTERIOR
100
AcDbVertex
100
AcDb2dVertex
 10
464.039769269
 20
458.926212459
 30
-15
  0
VERTEX
  5
41
100
AcDbEntity
  8
CONTORNO_INTERIOR
100
AcDbVertex
100
AcDb2dVertex
 10
468.324371981
 20
460.247837365
 30
-15
  0
VERTEX
  5
42
100
AcDbEntity
  8
CONTORNO_INTERIOR
100
AcDbVertex
100
AcDb2dVertex
 10
472.758097192
 20
460.916113915
 30
-15
  0
VERTEX
  5
43
100
AcDbEntity
  8
CONTORNO_INTERIOR
100
AcDbVertex
100
AcDb2dVertex
 10
477.241902808
 20
460.916113915
 30
-15
  0
VERTEX
  5
44
100
AcDbEntity
  8
CONTORNO_INTERIOR
100
AcDbVertex
100
AcDb2dVertex
 10
481.675628019
 20
460.247837365
 30
-15
  0
VERTEX
  5
45
100
AcDbEntity
  8
CONTORNO_INTERIOR
100
AcDbVertex
100
AcDb2dVertex
 10
485.960230731
 20
458.926212459
 30
-15
  0
VERTEX
  5
46
100
AcDbEntity
  8
CONTORNO_INTERIOR
100
AcDbVertex
100
AcDb2dVertex
 10
490
 20
456.980762114
 30
-15
  0
VERTEX
  5
47
100
AcDbEntity
  8
CONTORNO_INTERIOR
100
AcDbVertex
100
AcDb2dVertex
 10
493.704694056
 20
454.454944474
 30
-15
  0
VERTEX
  5
48
100
AcDbEntity
  8
CONTORNO_INTERIOR
100
AcDbVertex
100
AcDb2dVertex
 10
496.991556155
 20
451.405182133
 30
-15
  0
VERTEX
  5
49
100
AcDbEntity
  8
CONTORNO_INTERIOR
100
AcDbVertex
100
AcDb2dVertex
 10
499.787163229
 20
447.899601742
 30
-15
  0
VERTEX
  5
4A
100
AcDbEntity
  8
CONTORNO_INTERIOR
100
AcDbVertex
100
AcDb2dVertex
 10
502.029066037
 20
444.016512174
 30
-15
  0
VERTEX
  5
4B
100
AcDbEntity
  8
CONTORNO_INTERIOR
100
AcDbVertex
100
AcDb2dVertex
 10
503.667184174
 20
439.842655232
 30
-15
  0
VERTEX
  5
4C
100
AcDbEntity
  8
CONTORNO_INTERIOR
100
AcDbVertex
100
AcDb2dVertex
 10
504.664924787
 20
435.471267985
 30
-15
  0
VERTEX
  5
4D
100
AcDbEntity
  8
CONTORNO_INTERIOR
100
AcDbVertex
100
AcDb2dVertex
 10
505
 20
431
 30
-15
  0
SEQEND
  5
4E
100
AcDbEntity
  8
CONTORNO_INTERIOR
  0
CIRCLE
  5
4F
100
AcDbEntity
  8
VDRILL
100
AcDbCircle
 39
13
 10
-940.5
 20
37
 30
6
 40
4
210
0
220
0
230
-1
  0
CIRCLE
  5
50
100
AcDbEntity
  8
VDRILL
100
AcDbCircle
 39
13
 10
-940.5
 20
240.5
 30
6
 40
4
210
0
220
0
230
-1
  0
CIRCLE
  5
51
100
AcDbEntity
  8
VDRILL
100
AcDbCircle
 39
13
 10
-940.5
 20
444
 30
6
 40
4
210
0
220
0
230
-1
  0
CIRCLE
  5
52
100
AcDbEntity
  8
VDRILL
100
AcDbCircle
 39
13
 10
-56
 20
472
 30
6
 40
4
210
0
220
0
230
-1
  0
CIRCLE
  5
53
100
AcDbEntity
  8
VDRILL
100
AcDbCircle
 39
13
 10
-335.333333333
 20
472
 30
6
 40
4
210
0
220
0
230
-1
  0
CIRCLE
  5
54
100
AcDbEntity
  8
VDRILL
100
AcDbCircle
 39
13
 10
-604.666666667
 20
472
 30
6
 40
4
210
0
220
0
230
-1
  0
CIRCLE
  5
55
100
AcDbEntity
  8
VDRILL
100
AcDbCircle
 39
13
 10
-894
 20
472
 30
6
 40
4
210
0
220
0
230
-1
  0
CIRCLE
  5
56
100
AcDbEntity
  8
VDRILL
100
AcDbCircle
 39
13
 10
-9.5
 20
37
 30
6
 40
4
210
0
220
0
230
-1
  0
CIRCLE
  5
57
100
AcDbEntity
  8
VDRILL
100
AcDbCircle
 39
13
 10
-9.5
 20
240.5
 30
6
 40
4
210
0
220
0
230
-1
  0
CIRCLE
  5
58
100
AcDbEntity
  8
VDRILL
100
AcDbCircle
 39
13
 10
-9.5
 20
444
 30
6
 40
4
210
0
220
0
230
-1
  0
ENDSEC
  0
SECTION
  2
OBJECTS
  0
DICTIONARY
  5
59
100
AcDbDictionary
  3
ACAD_GROUP
350
5A
  3
ACAD_MLINESTYLE
350
5B
  0
DICTIONARY
  5
5A
100
AcDbDictionary
  0
DICTIONARY
  5
5B
100
AcDbDictionary
  0
ENDSEC
  0
EOF
